# xmcd
#
# Track frame offsets: 
#        150
#        18545
#        36170
#        52208
#        68777
#        87732
#        99651
#        112674
#        130672
#        153686
#
# Disc length: 2209 seconds
#
# Revision: 1
# Processed by: cddbd v1.5.2PL0 Copyright (c) Steve Scherf et al.
# Submitted via: ExactAudioCopyFreeDBPlugin 1.0
#
DISCID=87089f0a
DTITLE=JC Brooks and the Uptown Sound - Beat of Our Own Drum
DYEAR=2009
DGENRE=Soul
TTITLE0=Baltimore Is the New Brooklyn
TTITLE1=The Beat of Our Own Drum
TTITLE2=Hold You Back
TTITLE3=Love One Another
TTITLE4=75 Years of Art Sex
TTITLE5=How to Stop Loving Someone Who's Stopped Loving You
TTITLE6=He Does the Town
TTITLE7=Here Comes the Fall
TTITLE8=Alright
TTITLE9=Berry Please
EXTD=
EXTT0=
EXTT1=
EXTT2=
EXTT3=
EXTT4=
EXTT5=
EXTT6=
EXTT7=
EXTT8=
EXTT9=
PLAYORDER=
